<svg width="57" height="56" viewBox="0 0 57 56" fill="none" xmlns="http://www.w3.org/2000/svg">
<rect x="1.65918" y="1" width="54" height="54" rx="27" stroke="#865DFF" stroke-width="2"/>
<path d="M29.9176 22.9668C30.9189 22.9668 31.8791 23.3646 32.5871 24.0726C33.2951 24.7806 33.6929 25.7408 33.6929 26.7421C33.6929 27.0759 33.8255 27.3959 34.0615 27.6319C34.2975 27.8679 34.6176 28.0005 34.9513 28.0005C35.2851 28.0005 35.6052 27.8679 35.8412 27.6319C36.0772 27.3959 36.2098 27.0759 36.2098 26.7421C36.2098 25.0733 35.5468 23.4729 34.3668 22.2929C33.1868 21.1129 31.5864 20.45 29.9176 20.45C29.5839 20.45 29.2638 20.5825 29.0278 20.8185C28.7918 21.0545 28.6592 21.3746 28.6592 21.7084C28.6592 22.0421 28.7918 22.3622 29.0278 22.5982C29.2638 22.8342 29.5839 22.9668 29.9176 22.9668Z" fill="white"/>
<path d="M29.9176 17.9326C32.2539 17.9326 34.4945 18.8607 36.1465 20.5127C37.7985 22.1647 38.7266 24.4053 38.7266 26.7416C38.7266 27.0754 38.8592 27.3955 39.0952 27.6315C39.3312 27.8675 39.6513 28 39.9851 28C40.3188 28 40.6389 27.8675 40.8749 27.6315C41.1109 27.3955 41.2435 27.0754 41.2435 26.7416C41.2435 23.7378 40.0502 20.857 37.9262 18.733C35.8022 16.609 32.9214 15.4158 29.9176 15.4158C29.5839 15.4158 29.2638 15.5484 29.0278 15.7844C28.7918 16.0204 28.6592 16.3404 28.6592 16.6742C28.6592 17.008 28.7918 17.328 29.0278 17.564C29.2638 17.8 29.5839 17.9326 29.9176 17.9326ZM40.9289 32.9205C40.8597 32.7185 40.7402 32.5374 40.5817 32.3943C40.4232 32.2512 40.2308 32.1508 40.0228 32.1025L32.4723 30.3785C32.2673 30.332 32.054 30.3376 31.8517 30.3947C31.6495 30.4519 31.4648 30.5588 31.3145 30.7057C31.1383 30.8693 31.1257 30.8818 30.3078 32.4423C27.5936 31.1916 25.4188 29.0079 24.1792 26.2886C25.7774 25.4832 25.79 25.4832 25.9536 25.2944C26.1005 25.1441 26.2074 24.9594 26.2645 24.7572C26.3217 24.5549 26.3273 24.3416 26.2808 24.1367L24.5567 16.6742C24.5085 16.4662 24.4081 16.2739 24.265 16.1153C24.1219 15.9568 23.9408 15.8373 23.7388 15.7681C23.4449 15.6632 23.1414 15.5873 22.8327 15.5416C22.5146 15.4679 22.1901 15.4257 21.8637 15.4158C20.3284 15.4158 18.856 16.0257 17.7704 17.1113C16.6848 18.1969 16.075 19.6693 16.075 21.2045C16.0816 26.3423 18.1255 31.2678 21.7585 34.9007C25.3915 38.5337 30.3169 40.5777 35.4547 40.5843C36.2149 40.5843 36.9677 40.4346 37.67 40.1437C38.3723 39.8528 39.0105 39.4264 39.548 38.8888C40.0855 38.3513 40.5119 37.7131 40.8028 37.0108C41.0938 36.3085 41.2435 35.5557 41.2435 34.7955C41.2439 34.4752 41.2186 34.1554 41.168 33.8391C41.1151 33.5266 41.0351 33.2192 40.9289 32.9205ZM35.4547 38.0675C30.9834 38.0641 26.6962 36.2864 23.5345 33.1247C20.3728 29.9631 18.5951 25.6758 18.5918 21.2045C18.5951 20.3378 18.9409 19.5075 19.5538 18.8946C20.1667 18.2817 20.997 17.9359 21.8637 17.9326H22.279L23.6255 23.7717L22.946 24.1241C21.8637 24.6904 21.008 25.1434 21.461 26.125C22.1987 28.2134 23.3924 30.1113 24.9553 31.6808C26.5183 33.2502 28.4112 34.4518 30.4965 35.1982C31.5536 35.6261 31.9689 34.8333 32.5352 33.7385L32.9001 33.0463L38.7266 34.3803V34.7955C38.7233 35.6623 38.3775 36.4926 37.7647 37.1055C37.1518 37.7184 36.3215 38.0641 35.4547 38.0675Z" fill="white"/>
<rect x="4.65918" y="4" width="48" height="48" rx="24" fill="#865DFF"/>
<path d="M29.7378 23.6856C30.5961 23.6856 31.4191 24.0266 32.026 24.6334C32.6329 25.2403 32.9738 26.0634 32.9738 26.9216C32.9738 27.2077 33.0874 27.482 33.2897 27.6843C33.492 27.8866 33.7664 28.0002 34.0524 28.0002C34.3385 28.0002 34.6129 27.8866 34.8152 27.6843C35.0175 27.482 35.1311 27.2077 35.1311 26.9216C35.1311 25.4912 34.5629 24.1194 33.5514 23.108C32.54 22.0965 31.1682 21.5283 29.7378 21.5283C29.4518 21.5283 29.1774 21.642 28.9751 21.8443C28.7728 22.0465 28.6592 22.3209 28.6592 22.607C28.6592 22.8931 28.7728 23.1674 28.9751 23.3697C29.1774 23.572 29.4518 23.6856 29.7378 23.6856Z" fill="white"/>
<path d="M29.7377 19.3707C31.7403 19.3707 33.6608 20.1662 35.0768 21.5822C36.4928 22.9982 37.2883 24.9187 37.2883 26.9212C37.2883 27.2073 37.4019 27.4817 37.6042 27.684C37.8065 27.8863 38.0809 27.9999 38.3669 27.9999C38.653 27.9999 38.9274 27.8863 39.1297 27.684C39.3319 27.4817 39.4456 27.2073 39.4456 26.9212C39.4456 24.3466 38.4228 21.8773 36.6022 20.0567C34.7816 18.2362 32.3124 17.2134 29.7377 17.2134C29.4516 17.2134 29.1773 17.327 28.975 17.5293C28.7727 17.7316 28.6591 18.006 28.6591 18.292C28.6591 18.5781 28.7727 18.8525 28.975 19.0548C29.1773 19.257 29.4516 19.3707 29.7377 19.3707ZM39.1759 32.2174C39.1166 32.0443 39.0142 31.889 38.8783 31.7664C38.7424 31.6437 38.5776 31.5577 38.3993 31.5163L31.9274 30.0385C31.7517 29.9987 31.5689 30.0035 31.3955 30.0525C31.2222 30.1015 31.0639 30.1931 30.935 30.319C30.784 30.4592 30.7732 30.47 30.0721 31.8075C27.7457 30.7355 25.8815 28.8637 24.8191 26.5329C26.189 25.8426 26.1997 25.8426 26.34 25.6808C26.4659 25.552 26.5575 25.3936 26.6065 25.2203C26.6555 25.047 26.6603 24.8641 26.6204 24.6884L25.1427 18.292C25.1013 18.1137 25.0152 17.9489 24.8926 17.813C24.7699 17.6771 24.6147 17.5747 24.4415 17.5154C24.1896 17.4254 23.9295 17.3604 23.6649 17.3212C23.3923 17.258 23.1141 17.2219 22.8344 17.2134C21.5184 17.2134 20.2564 17.7361 19.3258 18.6667C18.3953 19.5972 17.8726 20.8592 17.8726 22.1752C17.8783 26.579 19.6302 30.8008 22.7442 33.9148C25.8582 37.0288 30.08 38.7807 34.4838 38.7864C35.1354 38.7864 35.7806 38.6581 36.3826 38.4087C36.9846 38.1594 37.5316 37.7939 37.9923 37.3331C38.4531 36.8724 38.8185 36.3254 39.0679 35.7234C39.3172 35.1214 39.4456 34.4762 39.4456 33.8246C39.4459 33.5501 39.4243 33.2759 39.3809 33.0048C39.3355 32.7369 39.267 32.4734 39.1759 32.2174ZM34.4838 36.6291C30.6512 36.6263 26.9765 35.1025 24.2665 32.3925C21.5565 29.6825 20.0327 26.0077 20.0299 22.1752C20.0327 21.4323 20.3291 20.7206 20.8544 20.1952C21.3797 19.6699 22.0914 19.3735 22.8344 19.3707H23.1903L24.3445 24.3756L23.762 24.6776C22.8344 25.163 22.1009 25.5514 22.4892 26.3927C23.1215 28.1828 24.1447 29.8096 25.4843 31.1548C26.824 32.5001 28.4465 33.53 30.2339 34.1698C31.14 34.5365 31.4959 33.857 31.9813 32.9185L32.2941 32.3253L37.2883 33.4687V33.8246C37.2854 34.5675 36.9891 35.2792 36.4637 35.8046C35.9384 36.3299 35.2267 36.6263 34.4838 36.6291Z" fill="white"/>
</svg>
