<svg width="508" height="1179" viewBox="0 0 508 1179" fill="none" xmlns="http://www.w3.org/2000/svg">
<mask id="mask0_1_4372" style="mask-type:alpha" maskUnits="userSpaceOnUse" x="-845" y="0" width="1353" height="1179">
<rect x="-844.319" y="0.311035" width="1352" height="1178.39" fill="#D9D9D9"/>
</mask>
<g mask="url(#mask0_1_4372)">
<path d="M228.208 523.034C226.889 522.421 118.703 481.948 73.8448 467.23C29.6467 452.512 -21.148 442.701 -58.7493 441.474C-95.0313 440.248 -132.633 441.474 -132.633 441.474L-133.292 429.21C-132.633 429.21 -95.6912 427.983 -58.0898 429.21C-19.8288 430.436 32.9451 440.861 78.4626 455.579C123.32 470.296 232.166 510.77 232.826 511.383L228.208 523.034Z" fill="#865DFF" fill-opacity="0.3"/>
<path d="M227.548 489.926C226.888 489.313 141.79 456.811 90.9955 441.481C54.0538 430.442 9.19611 427.376 -23.7875 424.923C-36.3213 424.31 -47.5357 423.083 -55.4518 422.47C-83.8177 418.791 -131.974 422.47 -132.634 422.47L-133.953 410.206C-131.974 410.206 -83.8178 406.526 -54.1325 410.206C-46.2165 411.432 -35.6616 412.045 -23.1278 412.658C10.5155 415.111 56.0329 418.178 94.9536 429.829C146.408 445.16 231.506 478.275 232.825 478.888L227.548 489.926Z" fill="#865DFF" fill-opacity="0.3"/>
<path d="M215.674 466.617C214.354 466.004 102.87 423.691 57.3522 413.879C9.85577 404.067 -44.2374 397.935 -80.5194 399.162C-119.44 400.388 -132.634 399.162 -133.293 399.162L-131.974 386.897C-131.974 386.897 -118.121 388.123 -81.1791 386.897C-42.9181 385.67 11.1753 391.19 59.9911 401.614C106.828 411.426 216.334 453.126 220.951 454.966L215.674 466.617Z" fill="#865DFF" fill-opacity="0.3"/>
<path d="M216.334 441.475C215.675 441.475 141.132 416.946 77.1433 398.549C11.176 380.152 -21.148 375.246 -61.388 372.793C-101.628 370.34 -139.889 372.793 -140.549 372.793L-141.208 360.528C-140.549 360.528 -101.628 358.075 -60.7283 360.528C-19.8286 362.981 13.8147 367.887 80.4417 386.898C145.09 405.295 219.633 429.824 220.292 429.824L216.334 441.475Z" fill="#865DFF" fill-opacity="0.3"/>
<path d="M215.675 425.529C214.355 424.915 115.405 381.989 63.2903 366.658C6.55846 349.488 -28.4042 343.355 -66.0056 344.582C-105.586 345.808 -138.57 354.394 -139.229 354.394L-142.528 342.742C-141.208 342.129 -108.225 334.157 -66.6653 332.93C-21.8076 331.704 17.7727 340.289 67.2482 355.62C120.022 371.564 216.994 413.264 220.952 415.104L215.675 425.529Z" fill="#865DFF" fill-opacity="0.3"/>
<path d="M216.334 398.547C215.015 397.934 104.19 359.914 55.3738 343.97C4.57898 327.412 -48.8545 318.827 -83.1575 320.667C-120.099 323.12 -155.062 325.573 -155.062 325.573L-156.381 313.308C-156.381 313.308 -122.078 310.855 -84.4769 308.402C-48.1949 305.949 6.55804 315.147 59.3319 332.318C108.148 348.262 219.632 386.283 220.292 386.896L216.334 398.547Z" fill="#865DFF" fill-opacity="0.3"/>
<path d="M225.569 370.338C217.653 364.206 93.6348 313.308 40.861 299.816C-7.29517 287.552 -42.9174 287.552 -79.8591 287.552H-89.0945C-128.015 287.552 -166.936 294.911 -167.596 294.911L-170.234 282.646C-168.255 282.033 -129.335 275.287 -89.0945 275.287H-79.8591C-43.5771 275.287 -5.31615 275.287 44.1593 288.165C96.9332 301.656 226.229 353.781 234.805 361.753L225.569 370.338Z" fill="#865DFF" fill-opacity="0.3"/>
<path d="M234.145 343.354C232.825 342.741 108.147 284.483 38.2219 270.992C-31.7035 257.501 -75.2419 253.822 -110.864 257.501C-146.487 261.181 -178.151 266.086 -178.151 266.086L-180.13 253.822C-180.13 253.822 -147.806 248.916 -112.183 245.237C-74.5821 241.557 -30.3842 245.236 40.8605 258.728C112.105 272.219 234.804 329.863 240.082 332.316L234.145 343.354Z" fill="#865DFF" fill-opacity="0.3"/>
<path d="M241.401 319.441C240.082 318.828 140.471 259.344 73.1843 244.013C-3.3378 226.23 -54.1327 225.003 -83.1583 226.843C-118.121 229.296 -153.743 235.428 -154.403 235.428L-157.042 223.163C-156.382 223.163 -120.1 217.031 -84.4777 214.578C-54.7924 212.738 -2.01849 213.965 75.8229 232.362C145.089 248.306 244.04 307.176 247.998 309.629L241.401 319.441Z" fill="#865DFF" fill-opacity="0.3"/>
<path d="M259.213 294.298C258.553 293.685 172.136 250.759 134.534 233.588C94.9541 215.804 48.7769 202.926 27.6674 198.021L30.3062 185.756C52.0754 190.662 99.5717 204.153 139.812 221.937C178.073 239.107 264.49 282.034 265.15 282.647L259.213 294.298Z" fill="#865DFF" fill-opacity="0.3"/>
<path d="M267.128 272.224C266.468 271.611 209.736 239.11 180.051 225.619C150.366 211.514 129.916 204.156 129.916 204.156L134.534 192.504C135.193 193.117 154.984 200.476 185.329 213.967C215.674 228.072 271.086 259.96 273.725 261.186L267.128 272.224Z" fill="#865DFF" fill-opacity="0.3"/>
<path d="M56.0328 481.954C55.3731 481.954 2.59914 460.49 -38.3006 461.717C-82.4987 462.943 -120.1 469.076 -131.314 472.142L-134.613 460.491C-119.44 456.811 -79.8598 451.292 -38.9601 450.065C4.57832 448.839 58.6714 470.302 61.3101 471.529L56.0328 481.954Z" fill="#865DFF" fill-opacity="0.3"/>
<path d="M258.552 583.137C257.233 582.524 136.513 510.776 65.2681 496.671C-6.63628 481.954 -51.494 474.595 -131.314 496.671L-135.272 485.02C-52.8133 462.33 -6.63635 469.689 67.247 485.02C140.471 499.738 259.871 570.259 265.149 573.325L258.552 583.137Z" fill="#865DFF" fill-opacity="0.3"/>
<path d="M307.369 659.786C302.751 654.88 224.91 591.104 160.262 559.829C92.3153 526.714 43.4996 509.544 6.55789 504.638C-0.0388336 504.025 -5.97594 502.798 -10.5936 502.185C-34.3419 498.506 -42.2579 497.279 -73.2626 504.638C-110.864 513.223 -138.57 523.035 -139.23 523.035L-143.848 511.384C-142.528 510.77 -114.822 500.959 -76.5609 492.373C-43.5773 485.015 -33.0226 486.241 -8.6147 489.92C-3.33733 490.534 1.94009 491.147 8.53683 492.373C46.7979 497.279 96.933 515.063 166.199 548.791C233.485 581.292 313.965 646.908 317.923 652.427L307.369 659.786Z" fill="#865DFF" fill-opacity="0.3"/>
<path d="M85.7182 1107.44C77.8021 1107.44 70.5456 1106.83 63.9488 1105.6C-0.699112 1095.18 -48.8551 1077.4 -78.5404 1052.25C-110.864 1024.66 -162.319 952.296 -174.853 887.907C-187.386 824.131 -177.491 691.672 -174.853 669.596C-172.874 650.585 -163.638 637.708 -160.34 633.415C-160.34 632.802 -159.68 632.802 -159.68 632.189L-155.722 634.641L-159.021 630.349C-154.403 626.669 -150.445 629.122 -149.785 630.349C-145.827 634.028 -148.466 638.321 -149.785 640.161C-152.424 644.453 -160.34 654.878 -162.319 670.822C-164.958 692.285 -174.193 822.904 -162.319 885.454C-150.445 946.164 -100.31 1016.69 -69.9647 1043.05C-42.2584 1066.36 4.5784 1084.14 65.928 1093.34C120.681 1101.93 205.779 1069.42 247.338 1047.35C290.876 1023.43 306.049 993.996 333.755 935.126C359.482 881.161 355.524 798.988 354.865 789.176C354.205 787.336 354.205 784.884 354.205 780.591C353.545 764.647 352.226 726.627 308.688 684.313C251.956 629.122 151.026 569.639 91.6552 548.789C30.9653 527.326 -46.8761 520.58 -73.263 523.033C-98.9903 525.486 -138.571 532.231 -139.23 532.231L-141.869 519.967C-140.55 519.967 -101.629 513.221 -74.5825 510.155C-48.8552 507.702 30.3057 513.221 96.273 536.524C156.963 557.987 260.531 618.697 317.923 675.115C364.76 720.494 366.739 763.421 367.398 779.365C367.398 781.204 367.398 783.657 367.398 784.27L368.058 784.884V786.11C368.058 789.789 373.995 878.708 345.629 938.805C317.263 998.902 300.772 1030.79 253.935 1056.55C214.354 1079.85 142.45 1107.44 85.7182 1107.44Z" fill="#865DFF" fill-opacity="0.3"/>
<path d="M48.777 1166.93C48.1173 1166.93 -13.2323 1165.71 -57.4304 1142.4C-96.3511 1121.55 -178.81 1046.13 -202.558 995.84C-225.647 946.168 -254.013 830.267 -244.118 761.585C-235.542 697.195 -224.987 624.221 -172.873 573.322C-130.654 532.236 -75.9011 518.745 -5.97578 533.462C47.4577 544.5 216.993 630.966 242.061 651.203C244.7 653.043 247.998 655.496 251.297 658.562C277.684 678.798 326.499 716.206 333.756 778.755C341.672 848.051 336.394 910.601 319.903 941.876C304.07 970.698 259.213 1017.3 220.952 1026.5C185.989 1035.09 164.879 1040.61 92.9751 1024.05L96.2735 1012.4C165.539 1028.34 184.01 1023.44 217.653 1014.85C249.318 1006.88 292.196 966.405 308.028 936.356C323.201 907.534 328.478 846.211 320.562 779.982C313.966 722.338 269.767 687.997 242.721 667.76C239.422 665.307 236.124 662.854 233.485 660.401C211.057 642.004 42.8398 556.152 -8.61464 545.727C-74.5819 532.236 -124.057 543.274 -163.638 581.908C-212.454 629.74 -222.349 700.262 -230.924 763.425C-240.16 830.267 -213.113 943.102 -190.025 991.547C-167.596 1039.99 -88.435 1112.35 -50.174 1131.98C-8.61456 1153.44 49.4367 1154.67 49.4367 1154.67V1166.93H48.777Z" fill="#865DFF" fill-opacity="0.3"/>
<path d="M121.34 1142.4C75.823 1142.4 5.23804 1136.27 -65.347 1099.47C-167.596 1046.73 -206.517 879.935 -209.816 849.274C-212.454 823.518 -221.689 682.474 -193.983 638.935C-166.277 594.782 -119.44 537.751 -35.6617 549.403C47.4571 561.054 169.496 617.471 206.438 661.011C240.081 700.258 277.683 761.581 269.107 830.877C260.531 896.493 209.737 973.147 147.068 982.345C51.415 996.45 -21.8087 971.92 -64.6875 911.823C-120.1 833.943 -137.911 748.703 -130.655 702.098C-124.058 657.945 -114.822 627.283 -114.822 626.057L-102.289 629.123C-102.289 629.123 -111.524 659.784 -118.121 703.324C-124.718 747.477 -107.566 829.037 -54.1327 904.465C-3.99751 974.987 81.76 979.279 144.429 970.081C200.501 962.109 247.998 889.134 255.914 829.65C263.83 764.647 228.207 706.39 195.883 668.983C160.261 627.283 42.1796 573.319 -38.3006 561.667C-114.163 551.242 -157.042 604.593 -183.429 645.067C-209.156 684.927 -199.92 824.131 -197.282 848.047C-193.983 876.256 -155.063 1039.38 -59.41 1089.05C33.6039 1136.88 127.937 1130.75 158.942 1128.91L164.219 1128.29C180.711 1127.68 205.119 1110.51 213.695 1103.77L222.27 1112.96C220.951 1114.19 189.946 1139.33 164.879 1140.56L159.601 1141.17C151.685 1141.79 138.492 1142.4 121.34 1142.4Z" fill="#865DFF" fill-opacity="0.3"/>
<path d="M123.979 1068.2C120.021 1068.2 116.063 1068.2 112.765 1067.59C104.849 1066.97 96.9326 1066.36 89.0165 1066.36C44.8184 1063.91 9.85576 1062.07 -23.1279 1041.83C-60.7292 1019.75 -96.3516 985.413 -108.885 965.79L-97.6711 959.658C-85.7969 978.055 -51.4938 1010.56 -15.8714 1032.02C14.4735 1049.8 48.1167 1052.26 90.3357 1054.1C98.2518 1054.71 106.168 1054.71 114.084 1055.32C160.261 1058.39 212.375 1039.38 229.527 1032.63C232.165 1031.41 234.144 1030.79 235.464 1030.79L239.422 1042.44C238.762 1042.44 236.783 1043.06 234.145 1044.28C217.653 1051.03 170.156 1068.2 123.979 1068.2Z" fill="#865DFF" fill-opacity="0.3"/>
<path d="M104.189 1028.95C46.1376 1028.95 -12.5732 998.29 -55.4519 967.629C-120.1 922.249 -137.911 873.191 -147.147 826.585C-157.701 772.007 -149.785 651.2 -147.147 635.256C-145.827 625.445 -131.314 604.595 -104.927 588.651C-82.4985 575.773 -45.557 562.895 5.23785 576.999C87.697 599.689 149.706 656.106 179.391 683.702C182.69 686.768 185.988 689.834 188.627 692.287C206.438 707.618 210.396 754.224 201.161 834.557C197.862 862.153 182.03 875.644 149.047 894.041C114.084 913.664 30.3055 893.427 -30.3844 850.501C-81.1793 814.32 -79.2002 748.091 -78.5405 708.231C-78.5405 700.872 -77.8808 694.127 -78.5405 688.607C-79.8598 655.493 -65.3471 613.18 -40.2795 601.528C-15.8716 589.877 1.93953 601.528 2.5992 602.142L-5.31696 611.953C-5.97662 611.34 -17.191 604.595 -34.3425 612.567C-52.1537 620.539 -66.6664 656.106 -65.347 688.607C-65.347 694.127 -65.347 700.872 -65.347 708.844C-66.0067 746.252 -67.9857 809.414 -22.4683 841.303C32.2846 879.936 112.105 900.786 141.79 884.229C174.774 865.219 185.329 854.181 187.308 834.557C198.522 735.827 186.648 709.457 178.732 702.099C176.093 699.646 172.795 696.58 168.837 693.513C139.811 667.144 79.1213 611.34 -0.039444 589.877C-46.2166 576.999 -79.2002 588.65 -98.9904 600.302C-122.079 613.793 -133.953 632.19 -135.272 638.322C-137.911 656.106 -145.167 775.073 -135.272 825.359C-125.377 876.257 -106.247 918.57 -48.8552 959.043C-3.99745 990.318 81.1002 1037.54 153.664 1008.1C223.59 979.28 277.023 933.288 284.28 895.88C292.196 855.407 289.557 765.262 279.002 737.053C268.447 708.231 249.976 673.89 232.165 662.239L239.422 652.427C261.191 666.531 280.981 705.165 290.876 733.374C301.431 763.422 304.729 856.02 296.154 898.333C288.238 940.033 232.825 988.479 158.282 1019.14C141.79 1025.89 123.319 1028.95 104.189 1028.95Z" fill="#865DFF" fill-opacity="0.3"/>
<path d="M104.189 951.688C83.7388 951.688 59.9906 946.782 28.3263 932.678C-42.9184 901.403 -73.9229 835.787 -88.4357 804.512L-89.0955 802.672C-104.268 769.558 -105.587 692.29 -100.31 664.695C-95.0326 636.486 -69.9649 607.051 -55.4521 595.4L-46.8764 604.598C-58.0909 613.797 -82.4988 640.779 -87.1165 667.148C-92.3939 692.904 -91.0746 767.718 -77.2214 798.38L-76.5617 800.22C-61.3892 832.721 -33.0232 892.818 33.6038 922.253C102.21 952.301 130.576 938.81 166.198 922.253C201.82 905.696 223.59 863.383 223.59 840.08C223.59 814.937 208.417 745.029 205.119 732.764L218.312 730.311C218.312 730.924 236.783 811.258 236.783 840.693C236.783 870.741 210.396 916.121 172.135 933.904C150.366 942.49 130.576 951.688 104.189 951.688Z" fill="#865DFF" fill-opacity="0.3"/>
<path d="M105.508 868.282C96.2728 868.282 85.0583 867.055 73.1842 863.376C3.25891 843.752 -38.3006 803.279 -43.578 750.541C-46.8763 716.813 -52.1537 636.479 -24.4475 622.375C-2.0186 610.724 56.0327 625.441 89.6761 651.197C94.2938 654.876 99.5711 658.556 104.848 662.235C135.193 684.925 163.559 705.775 170.816 725.398C170.816 725.398 171.475 726.011 171.475 726.625C184.669 752.994 187.308 778.136 178.732 801.439C170.816 826.582 154.984 868.282 105.508 868.282ZM-2.67815 630.347C-9.27488 630.347 -13.8927 630.96 -17.8507 632.8C-31.7039 639.545 -36.9812 687.378 -30.3845 749.314C-25.7668 797.146 12.4942 833.327 77.1421 851.724C135.853 868.282 153.664 835.78 166.858 797.76C174.114 777.523 172.135 755.447 160.261 732.144C159.601 730.917 158.942 730.304 158.942 729.691C152.345 713.134 123.979 692.284 96.9323 672.047C91.6549 668.368 87.0373 664.688 81.7599 661.009C56.6923 641.998 19.7507 630.347 -2.67815 630.347Z" fill="#865DFF" fill-opacity="0.3"/>
<path d="M96.933 838.851C78.4622 838.851 57.3528 832.105 32.9449 818.001C-17.1903 789.792 -21.1484 721.723 -15.2114 695.354C-11.2533 678.797 -2.67756 665.919 8.53688 660.4C17.7723 655.494 29.6464 655.494 41.5205 659.787C67.9074 668.985 95.6138 694.741 98.2524 697.807C102.21 700.873 141.791 732.148 151.686 758.517C162.241 785.499 157.623 804.51 136.513 824.133C125.959 833.945 112.105 838.851 96.933 838.851ZM25.0287 668.985C21.0707 668.985 17.7723 669.598 14.4739 671.438C6.55783 675.731 -0.038744 684.929 -2.67744 698.42C-7.29515 718.657 -5.97584 782.433 39.5416 808.189C79.7816 830.879 108.147 833.332 127.278 815.548C145.089 798.991 148.388 784.886 139.152 762.81C129.257 738.894 89.6767 707.619 89.0171 707.005L88.3574 706.392C88.3574 706.392 60.6511 680.023 36.2432 671.438C32.2852 669.598 28.3271 668.985 25.0287 668.985Z" fill="#865DFF" fill-opacity="0.3"/>
<path d="M107.487 819.842C92.3144 819.842 73.184 814.936 56.0325 805.738C28.3262 791.02 5.89741 749.32 7.21675 714.366C7.87643 702.715 13.8134 696.582 18.4311 693.516C33.6035 683.704 58.6711 691.063 61.3098 691.676L64.6082 692.903L65.2679 695.356C66.5872 696.582 69.8856 699.035 72.5243 700.875C84.3984 708.847 104.189 722.951 119.361 745.641C143.769 782.435 139.811 806.351 128.597 814.936C123.319 818.003 116.063 819.842 107.487 819.842ZM38.881 700.262C34.2633 700.262 28.9859 700.875 25.6875 703.328C22.3891 705.781 20.4102 709.46 20.4102 714.979C19.0909 745.028 38.881 783.048 61.9695 795.313C87.6968 808.804 113.424 810.03 119.361 805.738C125.298 800.832 127.277 781.822 107.487 751.773C93.6338 730.923 75.1629 718.045 63.9485 710.687C59.3307 707.621 56.0324 705.168 54.0534 702.715C50.755 701.488 44.818 700.262 38.881 700.262Z" fill="#865DFF" fill-opacity="0.3"/>
<path d="M92.9743 794.693C88.3566 794.693 78.4615 791.014 53.394 757.286L63.9486 750.54C73.8437 764.031 87.0372 778.749 92.3146 782.429C92.9743 781.202 92.3145 776.909 87.6968 770.164C76.4824 752.993 50.7553 727.238 43.4989 727.238C40.8602 727.851 38.881 728.464 38.2214 729.69C37.5617 730.304 36.902 733.983 44.1584 745.635C54.0535 763.418 73.184 784.881 73.8437 785.495L63.9486 793.467C63.2889 792.24 44.1585 770.777 32.9441 751.767C25.6877 738.889 23.7087 730.917 27.0071 724.784C30.3054 718.039 38.881 716.199 41.5197 715.586C61.3099 711.293 98.9114 763.418 99.5711 764.032C106.168 773.843 108.147 782.429 105.508 788.561C103.529 792.24 100.231 794.693 95.613 795.306C94.2936 794.693 93.634 794.693 92.9743 794.693Z" fill="#865DFF" fill-opacity="0.3"/>
</g>
</svg>
