<svg width="48" height="49" viewBox="0 0 48 49" fill="none" xmlns="http://www.w3.org/2000/svg">
<path d="M31.33 31.5349C31.2044 32.098 30.893 32.6023 30.446 32.9669C29.9575 33.4622 29.3756 33.8555 28.7339 34.124C28.0922 34.3925 27.4036 34.5308 26.708 34.5309H26.383C24.9229 34.4524 23.4932 34.0828 22.178 33.4439H22.168C21.863 33.3019 21.548 33.1599 21.243 32.9869C19.7083 32.1246 18.3 31.0545 17.058 29.8069C15.4474 28.2944 14.1258 26.5011 13.158 24.5149C12.6434 23.4265 12.3 22.2652 12.14 21.0719C11.9032 19.823 12.0449 18.5318 12.547 17.3639C12.8634 16.8371 13.2496 16.3554 13.695 15.9319C13.8952 15.7049 14.1403 15.5218 14.4148 15.3941C14.6893 15.2664 14.9873 15.1969 15.29 15.1899C15.6189 15.2268 15.9373 15.3285 16.2269 15.4889C16.5164 15.6494 16.7713 15.8655 16.977 16.1249C17.434 16.6219 17.992 17.1399 18.45 17.6179L19.08 18.2379C19.45 18.5659 19.679 19.0239 19.72 19.5179C19.72 19.9709 19.553 20.4079 19.252 20.7469C19.0568 20.9839 18.8499 21.2108 18.632 21.4269L18.429 21.6399C18.311 21.7499 18.221 21.8859 18.165 22.0369C18.115 22.1839 18.095 22.3389 18.105 22.4939C18.266 22.9249 18.519 23.3169 18.845 23.6419C19.354 24.3319 19.862 24.9319 20.38 25.5819C21.3169 26.6697 22.4289 27.5934 23.67 28.3149C23.797 28.4079 23.943 28.4699 24.098 28.4969C24.232 28.5069 24.368 28.4869 24.494 28.4369C24.849 28.2279 25.164 27.9599 25.428 27.6439C25.7833 27.2095 26.2928 26.9293 26.85 26.8619C27.3862 26.8695 27.8977 27.0888 28.273 27.4719C28.476 27.6439 28.699 27.8779 28.913 28.1019L29.217 28.4159L29.532 28.7209L30.071 29.2689C30.392 29.5539 30.694 29.8589 30.975 30.1839C31.257 30.5739 31.384 31.0569 31.33 31.5349ZM27.684 24.5759C27.4827 24.5733 27.2904 24.4922 27.148 24.3499C27.0057 24.2075 26.9246 24.0152 26.922 23.8139C26.923 23.2387 26.8105 22.6689 26.5909 22.1373C26.3712 21.6057 26.0488 21.1226 25.642 20.7159C25.2353 20.3091 24.7522 19.9867 24.2206 19.767C23.689 19.5474 23.1192 19.4349 22.544 19.4359C22.3419 19.4359 22.1481 19.3557 22.0051 19.2128C21.8622 19.0699 21.782 18.876 21.782 18.6739C21.782 18.4718 21.8622 18.278 22.0051 18.1351C22.1481 17.9922 22.3419 17.9119 22.544 17.9119C23.3194 17.9108 24.0874 18.0626 24.804 18.3588C25.5206 18.655 26.1717 19.0897 26.72 19.638C27.2682 20.1862 27.7029 20.8373 27.9991 21.5539C28.2953 22.2705 28.4471 23.0385 28.446 23.8139C28.446 23.914 28.4263 24.0131 28.388 24.1055C28.3497 24.198 28.2935 24.282 28.2228 24.3528C28.152 24.4235 28.068 24.4796 27.9756 24.5179C27.8831 24.5562 27.784 24.5759 27.684 24.5759Z" fill="white"/>
<path d="M31.209 24.22C31.0079 24.2174 30.8157 24.1364 30.6734 23.9943C30.5311 23.8522 30.4499 23.6601 30.447 23.459C30.4486 22.4789 30.2569 21.5081 29.8829 20.6022C29.5089 19.6963 28.9599 18.873 28.2674 18.1794C27.5749 17.4859 26.7524 16.9357 25.847 16.5603C24.9416 16.185 23.9711 15.9919 22.991 15.992C22.8887 15.9957 22.7867 15.9788 22.691 15.9422C22.5954 15.9056 22.5081 15.8501 22.4344 15.779C22.3607 15.7079 22.3021 15.6227 22.2621 15.5285C22.2221 15.4342 22.2014 15.3329 22.2014 15.2305C22.2014 15.1281 22.2221 15.0268 22.2621 14.9325C22.3021 14.8383 22.3607 14.7531 22.4344 14.682C22.5081 14.6109 22.5954 14.5554 22.691 14.5188C22.7867 14.4822 22.8887 14.4653 22.991 14.469C24.1711 14.469 25.3397 14.7016 26.4298 15.1535C27.52 15.6054 28.5104 16.2678 29.3444 17.1027C30.1784 17.9377 30.8396 18.9288 31.2903 20.0194C31.741 21.1101 31.9723 22.2789 31.971 23.459C31.971 23.5591 31.9513 23.6582 31.913 23.7506C31.8747 23.8431 31.8186 23.9271 31.7478 23.9978C31.6771 24.0686 31.5931 24.1247 31.5006 24.163C31.4082 24.2013 31.3091 24.22 31.209 24.22Z" fill="white"/>
</svg>
